<?xml version="1.0" standalone="no"?>
<!DOCTYPE svg PUBLIC "-//W3C//DTD SVG 20010904//EN"
 "http://www.w3.org/TR/2001/REC-SVG-20010904/DTD/svg10.dtd">
<svg version="1.0" xmlns="http://www.w3.org/2000/svg"
 width="1648.000000pt" height="1648.000000pt" viewBox="0 0 1648.000000 1648.000000"
 preserveAspectRatio="xMidYMid meet">
<metadata>
Created by potrace 1.14, written by Peter Selinger 2001-2017
</metadata>
<g transform="translate(0.000000,1648.000000) scale(0.100000,-0.100000)"
fill="#000000" stroke="none">
<path d="M14560 11200 c0 -3 -42 -5 -93 -5 -84 -1 -134 -5 -282 -21 -27 -3
-84 -13 -125 -21 -41 -8 -86 -17 -100 -20 -100 -18 -381 -104 -407 -126 -7 -5
-13 -7 -13 -4 0 5 -95 -37 -142 -63 -10 -6 -25 -10 -33 -10 -8 0 -15 -4 -15
-9 0 -5 -8 -11 -17 -14 -79 -25 -357 -213 -498 -336 -91 -80 -275 -273 -351
-367 -80 -99 -197 -270 -241 -348 -64 -116 -163 -328 -183 -391 -7 -22 -16
-44 -20 -50 -3 -5 -15 -39 -25 -75 -10 -36 -23 -71 -28 -77 -5 -7 -7 -13 -4
-13 3 0 1 -15 -4 -32 -19 -61 -49 -183 -54 -218 -3 -19 -8 -42 -11 -51 -2 -9
-7 -34 -10 -55 -2 -22 -6 -46 -9 -54 -2 -8 -7 -37 -10 -65 -3 -27 -7 -61 -10
-74 -27 -138 -27 -780 0 -931 3 -14 7 -45 10 -70 4 -39 17 -114 40 -235 3 -16
11 -48 17 -70 6 -22 11 -44 13 -50 8 -37 20 -80 42 -152 13 -45 25 -86 25 -90
0 -5 9 -25 19 -45 10 -21 19 -41 19 -46 0 -5 7 -26 15 -46 8 -20 15 -38 15
-41 0 -3 9 -21 20 -40 11 -20 20 -42 20 -50 0 -8 5 -15 10 -15 6 0 10 -7 10
-15 0 -8 11 -34 24 -57 13 -24 38 -70 56 -103 222 -408 624 -818 1023 -1046
50 -28 240 -122 282 -138 11 -5 31 -13 45 -20 44 -19 272 -91 291 -91 10 0 21
-5 24 -10 4 -6 10 -8 14 -5 5 2 33 -2 62 -9 50 -13 147 -30 229 -41 211 -28
629 -23 855 10 22 4 58 8 80 11 43 5 268 42 307 50 13 2 46 9 73 14 28 6 59
12 70 15 11 2 52 11 90 20 39 9 77 18 85 20 91 21 420 110 460 125 14 5 78 25
143 45 l117 36 -2 651 c-3 642 -3 651 -23 654 -15 2 -31 -14 -65 -63 -61 -90
-227 -312 -275 -367 -5 -6 -37 -43 -70 -81 -195 -228 -464 -474 -650 -596
-139 -91 -314 -171 -422 -194 -32 -7 -64 -14 -93 -21 -20 -4 -186 -15 -235
-15 -9 0 -46 5 -122 16 -91 14 -206 49 -293 89 -70 32 -164 86 -190 109 -11 9
-23 17 -27 17 -21 0 -229 198 -313 299 -25 29 -49 59 -55 65 -5 7 -14 19 -20
27 -50 77 -137 206 -145 216 -5 7 -10 16 -10 20 0 5 -11 25 -25 45 -14 20 -25
44 -25 52 0 8 -4 16 -8 18 -7 2 -62 108 -67 128 0 3 -8 21 -17 40 -81 179
-175 473 -202 635 -3 17 -10 55 -16 85 -6 30 -13 71 -16 90 -3 19 -7 46 -10
60 -2 14 -7 54 -10 90 -3 36 -7 71 -10 78 -24 75 -24 733 0 937 13 109 19 152
21 165 1 8 6 40 11 70 4 30 8 57 9 60 1 3 5 25 9 50 4 25 14 70 21 100 8 30
16 66 18 80 9 48 108 358 137 425 9 22 25 60 35 85 11 25 24 48 30 52 5 4 7 8
3 8 -7 0 51 117 99 200 45 78 150 241 162 250 3 3 22 25 41 50 86 112 204 228
335 328 31 24 132 82 143 82 6 0 12 4 12 9 0 8 20 19 50 26 3 1 28 12 55 24
145 66 399 99 585 76 183 -22 397 -104 569 -216 41 -27 76 -49 78 -49 4 0 135
-100 143 -109 3 -3 34 -31 70 -61 76 -65 194 -183 277 -277 32 -36 63 -71 68
-77 33 -34 175 -218 175 -225 0 -5 7 -11 15 -15 8 -3 15 -12 15 -20 0 -8 3
-16 8 -18 9 -4 95 -122 137 -190 29 -45 61 -66 77 -50 5 5 7 296 6 648 l-3
639 -70 23 c-252 84 -696 206 -830 228 -16 3 -45 9 -64 14 -19 5 -38 7 -43 4
-4 -3 -8 -1 -8 3 0 5 -8 9 -17 9 -17 1 -59 8 -113 19 -14 3 -46 7 -71 10 -25
3 -56 8 -70 10 -13 3 -42 7 -64 10 -22 2 -58 7 -80 9 -64 8 -171 16 -295 22
-63 3 -132 6 -153 7 -20 1 -37 0 -37 -3z"/>
<path d="M43 11122 c-28 -4 -33 -27 -17 -74 7 -21 12 -38 10 -38 -2 0 2 -20
10 -45 7 -25 11 -45 8 -45 -3 0 0 -8 5 -17 5 -10 11 -31 14 -48 3 -16 17 -77
30 -135 14 -58 28 -125 32 -150 4 -25 9 -54 12 -65 7 -36 15 -80 18 -110 2
-16 4 -30 5 -30 2 0 5 -22 14 -99 4 -32 10 -84 13 -115 9 -74 10 -3702 1
-3811 -6 -79 -32 -273 -43 -330 -3 -14 -8 -38 -11 -55 -4 -25 -33 -168 -49
-241 -2 -10 -15 -64 -29 -119 -15 -55 -28 -111 -31 -125 -3 -14 -9 -40 -15
-59 -5 -19 -7 -37 -5 -41 6 -10 55 -19 55 -11 0 4 24 4 53 1 28 -3 80 -3 115
0 34 3 62 3 62 0 0 -3 21 -4 47 -3 72 3 394 6 483 4 8 0 49 0 90 0 41 0 82 1
90 0 8 0 62 0 120 0 100 0 181 -1 225 -3 11 0 39 0 61 1 l41 1 -4 43 c-3 23
-10 48 -15 55 -6 6 -8 12 -5 12 3 0 -1 26 -8 58 -8 33 -16 70 -19 83 -2 13
-11 56 -21 94 -9 39 -18 81 -20 95 -2 14 -8 50 -14 80 -6 30 -13 69 -16 85 -2
17 -7 41 -10 55 -3 14 -8 41 -10 60 -3 19 -7 44 -9 55 -2 11 -7 45 -11 75 -4
30 -9 66 -11 80 -14 84 -17 256 -18 950 l-1 775 280 -1 c315 -1 334 -4 493
-85 194 -98 316 -202 494 -417 9 -11 25 -33 35 -49 9 -15 20 -30 24 -33 8 -6
87 -128 123 -190 25 -44 158 -310 189 -380 8 -19 36 -84 62 -145 25 -60 55
-129 66 -152 10 -24 29 -64 40 -90 12 -27 44 -95 70 -151 27 -57 49 -106 49
-108 0 -13 238 -477 271 -529 10 -16 22 -37 26 -45 11 -26 131 -204 160 -238
28 -32 93 -61 93 -41 0 6 4 7 10 4 5 -3 51 -6 102 -5 51 0 102 1 113 0 130 0
159 1 166 6 5 3 9 2 9 -3 0 -4 21 -7 47 -6 92 4 441 6 498 3 17 -1 37 -2 45
-2 45 2 179 2 186 1 58 -10 56 18 -5 83 -27 29 -60 67 -75 83 -14 17 -31 37
-38 45 -22 24 -62 76 -78 100 -8 12 -20 28 -27 35 -7 7 -44 62 -82 122 -39 59
-75 113 -81 120 -5 7 -10 14 -10 17 0 2 -20 39 -45 80 -25 42 -45 81 -45 86 0
6 -4 10 -10 10 -5 0 -10 4 -10 9 0 10 -193 413 -211 441 -5 8 -12 22 -15 30
-22 53 -316 639 -351 698 -24 41 -43 76 -43 78 0 3 -4 10 -10 17 -5 7 -37 49
-70 95 -106 145 -270 299 -420 394 -61 39 -210 118 -222 118 -4 0 -31 11 -60
25 -29 13 -91 35 -138 48 -90 26 -90 28 20 42 25 4 92 16 150 27 58 11 110 21
115 22 6 1 15 5 21 8 6 4 26 10 44 13 18 3 41 10 51 16 11 5 19 7 19 3 0 -3 7
0 17 7 9 8 18 13 20 11 4 -4 73 21 133 46 19 8 37 16 40 17 15 4 159 79 185
95 17 11 39 24 50 29 11 5 29 17 40 28 11 10 42 33 68 51 93 66 287 268 287
300 0 6 4 12 8 14 18 7 131 227 138 268 0 3 3 12 7 20 7 18 38 128 42 150 24
128 24 134 30 300 4 126 -4 267 -19 336 -2 12 -7 39 -11 60 -9 59 -73 241
-108 309 -195 376 -566 651 -1043 775 -116 30 -180 41 -369 65 -34 4 -281 18
-310 17 -16 -1 -144 -1 -210 -1 -33 0 -62 0 -65 -1 -12 -4 -112 0 -120 5 -5 3
-11 1 -15 -5 -4 -6 -11 -8 -16 -4 -5 3 -60 5 -122 5 -62 -1 -139 -1 -172 0
-55 0 -117 0 -147 -2 -23 -1 -152 0 -193 2 -35 1 -88 0 -127 -2 -19 -1 -136 0
-188 2 -39 1 -88 0 -132 -2 -23 -1 -152 0 -193 2 -35 1 -88 0 -127 -2 -19 -1
-136 0 -188 2 -39 1 -88 0 -132 -2 -14 0 -125 -1 -195 0 -22 0 -52 2 -65 4
-12 2 -33 1 -45 -1z m2207 -296 c47 -3 99 -8 115 -11 71 -14 110 -22 110 -25
0 -1 9 -3 20 -5 35 -5 150 -53 204 -84 84 -50 112 -72 191 -151 86 -87 142
-165 189 -265 18 -38 36 -77 40 -85 12 -23 59 -181 66 -220 3 -19 8 -46 10
-60 32 -174 36 -458 10 -647 -3 -21 -8 -49 -11 -63 -3 -14 -8 -36 -10 -50 -11
-55 -35 -142 -53 -184 -11 -24 -17 -47 -14 -50 4 -3 1 -6 -5 -6 -7 0 -12 -6
-12 -14 0 -26 -73 -147 -140 -230 -28 -35 -125 -124 -169 -157 -139 -100 -342
-168 -556 -185 -48 -4 -816 -8 -940 -5 l-31 1 1 1250 0 1249 25 3 c45 5 872 0
960 -6z"/>
<path d="M5406 11123 c-1 -1 -23 -3 -49 -4 -27 -2 -50 -6 -52 -10 -5 -6 58
-207 75 -244 11 -22 99 -271 105 -295 2 -8 12 -49 23 -90 17 -63 41 -174 56
-255 3 -19 8 -55 22 -165 7 -60 7 -3039 0 -3160 -4 -53 -8 -104 -10 -115 -2
-11 -7 -45 -10 -76 -4 -31 -9 -67 -11 -80 -3 -13 -7 -39 -10 -59 -3 -20 -8
-47 -10 -60 -5 -24 -25 -140 -30 -170 -1 -8 -5 -26 -8 -40 -4 -14 -9 -36 -11
-50 -10 -54 -56 -221 -87 -316 -18 -54 -34 -104 -35 -110 -1 -6 -15 -51 -32
-100 -54 -160 -104 -319 -108 -340 -3 -17 2 -23 21 -26 14 -3 25 -2 25 1 0 3
21 5 47 4 27 -2 103 -3 171 -2 67 0 129 0 137 0 8 0 67 0 130 0 63 0 123 0
133 0 93 -2 156 0 163 5 5 3 9 2 9 -3 0 -4 24 -7 52 -5 29 1 86 2 126 2 39 0
72 4 72 9 0 4 -27 89 -59 187 -73 220 -141 437 -140 444 0 3 -6 23 -15 45 -14
37 -48 166 -60 225 -2 14 -11 57 -19 95 -18 82 -27 131 -32 165 -2 14 -6 35
-9 47 -2 12 -7 46 -10 75 -4 29 -8 69 -11 88 -16 115 -18 394 -18 1750 1 828
2 1534 3 1569 2 57 4 62 16 46 8 -10 14 -22 14 -26 0 -8 62 -167 217 -559 35
-91 68 -174 73 -185 25 -60 184 -467 197 -505 8 -25 19 -49 23 -55 4 -5 13
-28 20 -50 7 -22 21 -58 30 -80 20 -45 104 -257 105 -265 1 -3 9 -22 18 -44 9
-21 17 -44 17 -50 0 -7 4 -16 8 -22 5 -5 14 -22 20 -39 6 -16 54 -138 105
-270 52 -132 111 -283 132 -335 20 -52 41 -106 47 -120 23 -55 28 -67 49 -125
12 -33 25 -65 30 -71 5 -6 10 -19 12 -30 2 -10 9 -30 14 -44 6 -14 36 -90 68
-170 114 -290 136 -345 145 -365 5 -11 36 -92 70 -180 34 -88 67 -173 75 -190
7 -16 32 -79 55 -140 23 -60 48 -123 55 -140 16 -39 40 -99 40 -105 1 -3 9
-22 18 -44 9 -21 17 -42 17 -46 0 -5 6 -21 14 -37 8 -15 21 -46 29 -68 8 -22
28 -71 44 -110 15 -38 28 -72 29 -75 0 -3 6 -18 13 -35 7 -16 22 -55 33 -85
28 -74 34 -80 74 -75 19 2 34 1 34 -3 0 -4 42 -6 92 -4 51 1 120 2 153 1 89
-1 108 0 117 9 5 5 28 60 52 123 111 295 152 405 203 539 169 447 219 579 273
720 28 74 53 140 54 145 2 6 6 18 9 28 4 9 10 25 14 35 3 9 7 22 9 27 4 14
162 433 179 475 23 55 38 95 39 100 1 3 6 19 13 35 6 17 32 86 58 155 26 69
63 166 82 215 19 50 36 95 38 100 1 6 6 19 10 30 25 61 47 122 50 135 2 8 11
33 21 55 10 22 18 43 18 47 1 3 4 10 9 14 4 4 7 17 7 29 0 11 4 25 9 31 4 5
22 47 39 94 62 170 113 305 121 325 5 11 17 43 27 70 9 28 21 54 26 59 4 6 8
17 8 25 0 8 20 64 44 125 24 61 63 163 86 226 23 63 48 129 56 147 8 17 14 33
14 36 0 3 4 16 9 29 5 13 9 26 10 31 0 4 8 21 17 38 8 17 17 38 19 47 2 10 29
82 59 162 31 79 56 148 56 152 0 5 9 27 19 51 11 23 26 62 35 87 12 35 15 39
16 20 8 -166 -1 -3765 -10 -3765 -1 0 -3 -22 -5 -50 -5 -64 -11 -105 -36 -248
-6 -32 -12 -70 -14 -85 -5 -39 -64 -329 -77 -377 -5 -22 -11 -47 -13 -55 -2
-8 -11 -52 -20 -98 -9 -46 -15 -86 -12 -89 7 -6 107 -10 107 -3 0 3 26 4 57 2
32 -1 114 -2 183 -2 69 1 132 1 140 1 85 -2 154 0 161 5 5 3 9 2 9 -3 0 -4 21
-7 47 -6 111 5 498 6 531 2 4 -1 49 -1 100 0 l92 1 0 28 c0 15 -10 61 -21 102
-11 41 -22 82 -24 90 -38 160 -47 199 -51 220 -2 14 -9 45 -14 70 -5 25 -12
59 -15 75 -3 17 -7 41 -10 55 -8 39 -17 103 -20 135 -2 17 -6 46 -10 65 -11
58 -27 368 -26 510 1 25 1 79 1 120 0 41 0 98 1 125 1 46 0 159 -2 195 0 8 0
49 0 90 1 41 1 82 1 90 -1 8 -1 80 -1 160 0 80 0 152 0 160 0 8 0 76 1 150 0
74 0 158 0 185 0 135 0 204 1 250 1 46 0 159 -2 195 0 8 0 49 0 90 1 41 1 82
1 90 -1 8 -1 80 -1 160 0 80 0 152 0 160 0 8 0 76 1 150 0 74 0 158 0 185 0
135 0 204 1 250 1 47 0 161 -2 195 0 8 0 53 0 100 1 47 1 92 0 100 0 28 10
215 15 275 7 75 10 95 31 220 9 55 18 111 20 125 2 14 7 36 9 50 13 58 17 77
22 105 3 17 27 118 53 225 34 134 45 199 39 207 -6 7 -14 10 -19 8 -7 -5 -68
-6 -169 -3 -14 0 -52 0 -85 -1 -33 0 -67 0 -75 0 -8 1 -46 1 -85 0 -38 0 -77
0 -85 0 -8 0 -58 0 -110 0 -52 0 -146 -1 -208 -1 -63 0 -118 -3 -123 -6 -5 -3
-9 -1 -9 3 0 5 -24 6 -52 3 -29 -3 -69 -3 -88 0 -19 3 -57 4 -83 2 -44 -4 -48
-7 -54 -33 -3 -16 -9 -29 -14 -29 -5 0 -8 -3 -8 -7 1 -5 0 -11 -1 -15 -1 -5
-3 -11 -5 -15 -1 -5 -8 -21 -15 -38 -7 -16 -14 -36 -16 -42 -5 -25 -37 -108
-46 -117 -4 -6 -8 -17 -8 -25 0 -9 -7 -29 -15 -44 -8 -15 -19 -42 -24 -60 -5
-18 -24 -68 -41 -112 -17 -44 -59 -156 -95 -250 -35 -93 -89 -235 -120 -315
-30 -80 -57 -152 -60 -160 -2 -8 -34 -94 -70 -190 -37 -96 -80 -211 -97 -255
-16 -44 -34 -89 -39 -100 -8 -19 -67 -177 -131 -350 -16 -44 -35 -93 -42 -110
-7 -16 -23 -59 -36 -95 -13 -36 -26 -69 -30 -75 -3 -5 -15 -38 -26 -72 -10
-35 -22 -63 -26 -63 -5 0 -8 -7 -8 -15 0 -9 -12 -43 -26 -78 -14 -34 -27 -66
-28 -72 -2 -5 -6 -19 -10 -30 -5 -11 -12 -31 -17 -45 -5 -14 -14 -38 -20 -55
-7 -16 -13 -32 -14 -35 -1 -3 -5 -12 -8 -20 -4 -8 -26 -69 -51 -135 -25 -66
-51 -138 -60 -160 -23 -64 -29 -80 -31 -85 -1 -3 -9 -23 -18 -44 -10 -22 -20
-51 -24 -65 -3 -14 -9 -30 -13 -36 -3 -5 -19 -44 -34 -85 -15 -41 -31 -84 -36
-95 -4 -11 -25 -65 -45 -120 -20 -55 -41 -111 -47 -125 -6 -14 -12 -29 -14
-35 -2 -10 -49 -137 -61 -165 -3 -8 -7 -17 -8 -20 -2 -6 -20 -51 -38 -95 -6
-16 -12 -32 -13 -35 0 -3 -4 -14 -8 -25 -39 -103 -65 -172 -68 -184 -2 -8 -23
33 -45 90 -23 57 -88 221 -144 364 -57 143 -104 262 -105 265 -2 10 -17 46
-36 89 -11 25 -21 52 -23 60 -3 14 -61 162 -84 216 -5 11 -42 103 -81 205 -40
102 -78 199 -85 215 -7 17 -21 50 -30 75 -16 42 -27 68 -46 115 -4 11 -67 171
-139 355 -72 184 -137 349 -144 365 -8 17 -48 120 -91 230 -43 110 -81 204
-86 210 -5 5 -9 18 -9 30 0 12 -4 25 -8 30 -4 6 -18 35 -30 65 -120 308 -143
368 -151 385 -5 11 -26 63 -46 115 -92 237 -108 278 -126 317 -10 24 -19 47
-19 53 0 6 -8 29 -19 53 -34 77 -74 176 -73 184 0 4 -6 19 -13 33 -12 22 -32
73 -64 160 -5 14 -9 29 -9 34 0 5 -4 12 -9 15 -5 3 -14 25 -21 48 -15 51 -27
55 -135 53 -45 0 -107 0 -137 0 -76 2 -87 3 -155 1 -33 0 -67 0 -75 0 -8 1
-46 1 -85 0 -38 0 -77 0 -85 0 -8 0 -58 0 -110 0 -52 0 -146 -1 -208 -1 -63 0
-118 -3 -123 -6 -5 -3 -9 -2 -9 3 0 7 -127 12 -134 6z"/>
</g>
</svg>
